<svg width="40" height="50" viewBox="0 0 40 50" fill="none" xmlns="http://www.w3.org/2000/svg">
<path id="Vector" fill-rule="evenodd" clip-rule="evenodd" d="M0 6.66667C0 4.89856 0.702379 3.20286 1.95262 1.95262C3.20286 0.702379 4.89856 0 6.66667 0C6.66667 2.65216 7.72024 5.1957 9.5956 7.07107C11.471 8.94643 14.0145 10 16.6667 10H23.3333C25.9855 10 28.529 8.94643 30.4044 7.07107C32.2798 5.1957 33.3333 2.65216 33.3333 0C35.1014 0 36.7971 0.702379 38.0474 1.95262C39.2976 3.20286 40 4.89856 40 6.66667V43.3333C40 45.1014 39.2976 46.7971 38.0474 48.0474C36.7971 49.2976 35.1014 50 33.3333 50H6.66667C4.89856 50 3.20286 49.2976 1.95262 48.0474C0.702379 46.7971 0 45.1014 0 43.3333V6.66667ZM32.3567 25.69C32.9639 25.0613 33.2998 24.2193 33.2922 23.3453C33.2846 22.4713 32.9341 21.6353 32.3161 21.0173C31.698 20.3992 30.862 20.0487 29.988 20.0411C29.114 20.0335 28.272 20.3695 27.6433 20.9767L16.6667 31.9533L12.3567 27.6433C11.728 27.0361 10.886 26.7002 10.012 26.7078C9.13801 26.7153 8.30196 27.0659 7.68394 27.6839C7.06591 28.302 6.71535 29.138 6.70775 30.012C6.70016 30.886 7.03614 31.728 7.64333 32.3567L14.31 39.0233C14.9351 39.6482 15.7828 39.9993 16.6667 39.9993C17.5505 39.9993 18.3982 39.6482 19.0233 39.0233L32.3567 25.69Z" fill="black"/>
</svg>
