<svg width="40" height="50" viewBox="0 0 40 50" fill="none" xmlns="http://www.w3.org/2000/svg">
<g id="Briefcase">
<path id="Vector" fill-rule="evenodd" clip-rule="evenodd" d="M12 15V12.5C12 10.5109 12.6321 8.60322 13.7574 7.1967C14.8826 5.79018 16.4087 5 18 5H22C23.5913 5 25.1174 5.79018 26.2426 7.1967C27.3679 8.60322 28 10.5109 28 12.5V15H32C33.0609 15 34.0783 15.5268 34.8284 16.4645C35.5786 17.4021 36 18.6739 36 20V28.925C30.8792 31.2968 25.461 32.5075 20 32.5C14.539 32.5076 9.12073 31.2969 4 28.925V20C4 18.6739 4.42143 17.4021 5.17157 16.4645C5.92172 15.5268 6.93913 15 8 15H12ZM16 12.5C16 11.837 16.2107 11.2011 16.5858 10.7322C16.9609 10.2634 17.4696 10 18 10H22C22.5304 10 23.0391 10.2634 23.4142 10.7322C23.7893 11.2011 24 11.837 24 12.5V15H16V12.5ZM18 25C18 24.337 18.2107 23.7011 18.5858 23.2322C18.9609 22.7634 19.4696 22.5 20 22.5H20.02C20.5504 22.5 21.0591 22.7634 21.4342 23.2322C21.8093 23.7011 22.02 24.337 22.02 25C22.02 25.663 21.8093 26.2989 21.4342 26.7678C21.0591 27.2366 20.5504 27.5 20.02 27.5H20C19.4696 27.5 18.9609 27.2366 18.5858 26.7678C18.2107 26.2989 18 25.663 18 25Z" fill="black"/>
<path id="Vector_2" d="M4 34.23V40C4 41.3261 4.42143 42.5978 5.17157 43.5355C5.92172 44.4732 6.93913 45 8 45H32C33.0609 45 34.0783 44.4732 34.8284 43.5355C35.5786 42.5978 36 41.3261 36 40V34.23C30.8447 36.4019 25.4402 37.5064 20 37.5C14.408 37.5 9.026 36.35 4 34.23Z" fill="black"/>
</g>
</svg>
