<svg width="44" height="50" viewBox="0 0 44 50" fill="none" xmlns="http://www.w3.org/2000/svg">
<path id="Vector" d="M19.1237 3.531C16.164 1.19968 12.9144 -0.00797012 9.62248 3.95837e-05C6.2156 3.95837e-05 2.9906 1.27364 0.121216 3.531V47.4484C3.08099 45.1172 6.33058 43.9096 9.62248 43.9174C14.1532 43.9174 18.3582 46.1572 21.8384 50C25.4382 46.0265 29.6964 43.9063 34.0543 43.9174C37.4612 43.9174 40.6862 45.191 43.5556 47.4484V3.531C40.5958 1.19968 37.3462 -0.00797012 34.0543 3.95837e-05C30.6474 3.95837e-05 27.4224 1.27364 24.553 3.531V35.134C24.553 36.2987 24.267 37.4158 23.7579 38.2394C23.2488 39.063 22.5584 39.5257 21.8384 39.5257C21.1184 39.5257 20.4279 39.063 19.9188 38.2394C19.4097 37.4158 19.1237 36.2987 19.1237 35.134V3.531Z" fill="black"/>
</svg>
