<svg width="40" height="50" viewBox="0 0 40 50" fill="none" xmlns="http://www.w3.org/2000/svg">
<path id="Vector" fill-rule="evenodd" clip-rule="evenodd" d="M6.66667 0C4.89856 0 3.20286 0.65848 1.95262 1.83058C0.702379 3.00268 0 4.5924 0 6.25V43.75C0 45.4076 0.702379 46.9973 1.95262 48.1694C3.20286 49.3415 4.89856 50 6.66667 50H33.3333C35.1014 50 36.7971 49.3415 38.0474 48.1694C39.2976 46.9973 40 45.4076 40 43.75V16.9188C39.9996 15.2613 39.297 13.6718 38.0467 12.5L26.6667 1.83125C25.4167 0.659066 23.7213 0.000353984 21.9533 0H6.66667ZM13.3333 31.25C13.3333 30.4212 12.9821 29.6263 12.357 29.0403C11.7319 28.4542 10.8841 28.125 10 28.125C9.11594 28.125 8.2681 28.4542 7.64298 29.0403C7.01786 29.6263 6.66667 30.4212 6.66667 31.25V40.625C6.66667 41.4538 7.01786 42.2487 7.64298 42.8347C8.2681 43.4208 9.11594 43.75 10 43.75C10.8841 43.75 11.7319 43.4208 12.357 42.8347C12.9821 42.2487 13.3333 41.4538 13.3333 40.625V31.25ZM20 21.875C20.8841 21.875 21.7319 22.2042 22.357 22.7903C22.9821 23.3763 23.3333 24.1712 23.3333 25V40.625C23.3333 41.4538 22.9821 42.2487 22.357 42.8347C21.7319 43.4208 20.8841 43.75 20 43.75C19.1159 43.75 18.2681 43.4208 17.643 42.8347C17.0179 42.2487 16.6667 41.4538 16.6667 40.625V25C16.6667 24.1712 17.0179 23.3763 17.643 22.7903C18.2681 22.2042 19.1159 21.875 20 21.875ZM33.3333 18.75C33.3333 17.9212 32.9821 17.1263 32.357 16.5403C31.7319 15.9542 30.8841 15.625 30 15.625C29.1159 15.625 28.2681 15.9542 27.643 16.5403C27.0179 17.1263 26.6667 17.9212 26.6667 18.75V40.625C26.6667 41.4538 27.0179 42.2487 27.643 42.8347C28.2681 43.4208 29.1159 43.75 30 43.75C30.8841 43.75 31.7319 43.4208 32.357 42.8347C32.9821 42.2487 33.3333 41.4538 33.3333 40.625V18.75Z" fill="black"/>
</svg>
