<svg width="45" height="50" viewBox="0 0 45 50" fill="none" xmlns="http://www.w3.org/2000/svg">
<path id="Vector" fill-rule="evenodd" clip-rule="evenodd" d="M6.5905 6.06602C10.81 2.18201 16.5329 0 22.5002 0C28.4675 0 34.1904 2.18201 38.41 6.06602C42.6295 9.95002 45 15.2179 45 20.7107C45 26.2035 42.6295 31.4713 38.41 35.3553L22.5002 50L6.5905 35.3553C4.50107 33.4322 2.84363 31.1491 1.71282 28.6364C0.58202 26.1237 0 23.4305 0 20.7107C0 17.9909 0.58202 15.2977 1.71282 12.785C2.84363 10.2722 4.50107 7.98911 6.5905 6.06602ZM22.5002 26.6277C24.2051 26.6277 25.8401 26.0043 27.0456 24.8947C28.2512 23.785 28.9284 22.28 28.9284 20.7107C28.9284 19.1414 28.2512 17.6364 27.0456 16.5267C25.8401 15.417 24.2051 14.7936 22.5002 14.7936C20.7954 14.7936 19.1603 15.417 17.9548 16.5267C16.7493 17.6364 16.0721 19.1414 16.0721 20.7107C16.0721 22.28 16.7493 23.785 17.9548 24.8947C19.1603 26.0043 20.7954 26.6277 22.5002 26.6277Z" fill="black"/>
</svg>
