<svg width="40" height="50" viewBox="0 0 40 50" fill="none" xmlns="http://www.w3.org/2000/svg">
<path id="Vector" fill-rule="evenodd" clip-rule="evenodd" d="M0 6.66667C0 4.89856 0.702379 3.20286 1.95262 1.95262C3.20286 0.702379 4.89856 0 6.66667 0C6.66667 2.65216 7.72024 5.1957 9.5956 7.07107C11.471 8.94643 14.0145 10 16.6667 10H23.3333C25.9855 10 28.529 8.94643 30.4044 7.07107C32.2798 5.1957 33.3333 2.65216 33.3333 0C35.1014 0 36.7971 0.702379 38.0474 1.95262C39.2976 3.20286 40 4.89856 40 6.66667V43.3333C40 45.1014 39.2976 46.7971 38.0474 48.0474C36.7971 49.2976 35.1014 50 33.3333 50H6.66667C4.89856 50 3.20286 49.2976 1.95262 48.0474C0.702379 46.7971 0 45.1014 0 43.3333V6.66667ZM10 20C9.11594 20 8.2681 20.3512 7.64298 20.9763C7.01786 21.6014 6.66667 22.4493 6.66667 23.3333C6.66667 24.2174 7.01786 25.0652 7.64298 25.6904C8.2681 26.3155 9.11594 26.6667 10 26.6667H10.0333C10.9174 26.6667 11.7652 26.3155 12.3904 25.6904C13.0155 25.0652 13.3667 24.2174 13.3667 23.3333C13.3667 22.4493 13.0155 21.6014 12.3904 20.9763C11.7652 20.3512 10.9174 20 10.0333 20H10ZM20 20C19.1159 20 18.2681 20.3512 17.643 20.9763C17.0179 21.6014 16.6667 22.4493 16.6667 23.3333C16.6667 24.2174 17.0179 25.0652 17.643 25.6904C18.2681 26.3155 19.1159 26.6667 20 26.6667H30C30.8841 26.6667 31.7319 26.3155 32.357 25.6904C32.9821 25.0652 33.3333 24.2174 33.3333 23.3333C33.3333 22.4493 32.9821 21.6014 32.357 20.9763C31.7319 20.3512 30.8841 20 30 20H20ZM10 33.3333C9.11594 33.3333 8.2681 33.6845 7.64298 34.3096C7.01786 34.9348 6.66667 35.7826 6.66667 36.6667C6.66667 37.5507 7.01786 38.3986 7.64298 39.0237C8.2681 39.6488 9.11594 40 10 40H10.0333C10.9174 40 11.7652 39.6488 12.3904 39.0237C13.0155 38.3986 13.3667 37.5507 13.3667 36.6667C13.3667 35.7826 13.0155 34.9348 12.3904 34.3096C11.7652 33.6845 10.9174 33.3333 10.0333 33.3333H10ZM20 33.3333C19.1159 33.3333 18.2681 33.6845 17.643 34.3096C17.0179 34.9348 16.6667 35.7826 16.6667 36.6667C16.6667 37.5507 17.0179 38.3986 17.643 39.0237C18.2681 39.6488 19.1159 40 20 40H30C30.8841 40 31.7319 39.6488 32.357 39.0237C32.9821 38.3986 33.3333 37.5507 33.3333 36.6667C33.3333 35.7826 32.9821 34.9348 32.357 34.3096C31.7319 33.6845 30.8841 33.3333 30 33.3333H20Z" fill="black"/>
</svg>
